<?xml version="1.0" encoding="UTF-8"?> <svg xmlns="http://www.w3.org/2000/svg" xmlns:xlink="http://www.w3.org/1999/xlink" version="1.1" x="0px" y="0px" width="1456.43px" height="905.36px" viewBox="0 0 1456.43 905.36" style="overflow:visible;enable-background:new 0 0 1456.43 905.36;" xml:space="preserve"> <style type="text/css"> .st0{fill-rule:evenodd;clip-rule:evenodd;fill:#00BAC6;} .st1{fill:#FFFFFF;} .st2{fill:#00BAC6;} .st3{fill:#AABAC8;} </style> <defs> </defs> <g> <path class="st0" d="M987.55,0c131.47,0,240.29,96.82,259.11,223.04c0.97-0.01,1.93-0.03,2.9-0.03 c83.11,0,150.49,67.38,150.49,150.5c0,83.12-67.38,150.5-150.49,150.5H987.55c-144.7,0-262.01-117.3-262.01-262S842.85,0,987.55,0z "></path> <g> <path class="st1" d="M1168.64,573.39v119.46c0,23.42-18.98,42.4-42.4,42.4s-42.4-18.98-42.4-42.4V573.39h-56.26v119.46 c0,54.49,44.17,98.67,98.67,98.67s98.67-44.17,98.67-98.67V573.39H1168.64z"></path> <path class="st1" d="M1400.17,507.34v79.68c-15.65-8.68-33.64-13.63-52.8-13.63c-60.23,0-109.06,48.83-109.06,109.06 s48.83,109.06,109.06,109.06c59.33,0,107.56-47.38,108.99-106.37l0.07-1.96V507.34H1400.17z M1347.37,735.25 c-29.16,0-52.8-23.64-52.8-52.8c0-29.16,23.64-52.8,52.8-52.8c29.16,0,52.8,23.64,52.8,52.8 C1400.17,711.62,1376.53,735.25,1347.37,735.25z"></path> <path class="st1" d="M905.1,573.39c-60.23,0-109.06,48.83-109.06,109.06s48.83,109.06,109.06,109.06s109.06-48.83,109.06-109.06 S965.33,573.39,905.1,573.39z M905.1,735.25c-29.16,0-52.8-23.64-52.8-52.8c0-29.16,23.64-52.8,52.8-52.8 c29.16,0,52.8,23.64,52.8,52.8C957.9,711.62,934.26,735.25,905.1,735.25z"></path> <path class="st1" d="M725.54,791.48V507.39h57.08v284.09H725.54z"></path> <path class="st1" d="M664.83,708.27c-9.05,16.07-26.25,26.95-46.01,26.95c-29.16,0-52.8-23.64-52.8-52.8 c0-29.16,23.64-52.8,52.8-52.8c20.03,0,37.46,11.16,46.4,27.59l46.94-31.23c-19.11-31.54-53.76-52.62-93.34-52.62 c-60.23,0-109.06,48.83-109.06,109.06s48.83,109.06,109.06,109.06c39.3,0,73.74-20.8,92.94-51.98L664.83,708.27z"></path> <g> <path class="st1" d="M363.12,668.63l-20.14,87.73c-4.93,20.63-23.36,35.17-44.57,35.17c-20.94,0-39.22-14.2-44.4-34.49 l-46.14-181h57.08l35.79,150.43l28.66-116.44c4-16.24,18.57-27.65,35.3-27.65c16.78,0,31.38,11.49,35.33,27.79l28.33,117.12 l36.17-151.24h55.04l-46.48,181.08c-5.21,20.25-23.47,34.4-44.38,34.4c-21.5,0.4-40.47-14.25-45.45-35.18 C383.26,756.35,363.12,668.63,363.12,668.63z"></path> <path class="st1" d="M218.12,682.06C211.89,537.68,5.7,538.08,0.01,682.47c-0.84,82.14,90.42,135.66,161.52,95.63 c-5.19,47.01-65.59,63.77-94.18,26.37l-44.16,34.97c61.99,79.34,190.93,38.41,194.84-63.26L218.12,682.06z M109.07,735.27 c-29.16,0-52.8-23.64-52.8-52.8c2.78-70.04,102.83-70.02,105.6,0C161.87,711.63,138.23,735.27,109.07,735.27z"></path> </g> </g> <circle class="st2" cx="505" cy="769.48" r="21.86"></circle> <g> <g> <path class="st3" d="M738.24,884.62c-1.65,1.29-3.69,2.29-6.1,3.03c-2.42,0.73-4.97,1.1-7.67,1.1c-3.24,0-6.3-0.61-9.18-1.84 c-2.88-1.22-5.39-2.91-7.53-5.05c-2.14-2.14-3.86-4.67-5.14-7.57c-1.29-2.91-1.93-6.07-1.93-9.5c0-3.37,0.64-6.53,1.93-9.5 c1.29-2.97,3-5.54,5.14-7.71c2.14-2.17,4.65-3.89,7.53-5.14c2.88-1.25,5.94-1.88,9.18-1.88c2.69,0,5.25,0.38,7.67,1.15 c2.42,0.77,4.45,1.79,6.1,3.08v-3.76H751v47.09h-12.76V884.62z M725.57,852.12c-1.78,0-3.41,0.34-4.91,1.01 c-1.5,0.67-2.8,1.58-3.9,2.71c-1.1,1.13-1.97,2.48-2.62,4.04c-0.64,1.56-0.96,3.2-0.96,4.91c0,1.78,0.32,3.43,0.96,4.96 c0.64,1.53,1.51,2.88,2.62,4.04c1.1,1.16,2.4,2.07,3.9,2.71c1.5,0.64,3.14,0.96,4.91,0.96c1.84,0,3.53-0.32,5.09-0.96 c1.56-0.64,2.92-1.54,4.09-2.71c1.16-1.16,2.07-2.51,2.71-4.04c0.64-1.53,0.96-3.18,0.96-4.96c0-1.71-0.34-3.35-1.01-4.91 c-0.67-1.56-1.59-2.91-2.75-4.04c-1.16-1.13-2.52-2.03-4.09-2.71C729.02,852.46,727.35,852.12,725.57,852.12z"></path> <path class="st3" d="M758.44,888.11v-62.88h12.85v62.88H758.44z"></path> <path class="st3" d="M1379.19,840.1c3.61,0,6.96,0.64,10.05,1.93c3.09,1.29,5.77,3.03,8.03,5.23c2.26,2.2,4.04,4.81,5.32,7.8 c1.29,3,1.93,6.21,1.93,9.64c0,3.43-0.64,6.63-1.93,9.59c-1.29,2.97-3.06,5.55-5.32,7.76c-2.27,2.2-4.94,3.95-8.03,5.23 c-3.09,1.29-6.44,1.93-10.05,1.93c-3.61,0-6.96-0.63-10.05-1.88c-3.09-1.25-5.77-2.98-8.03-5.19c-2.26-2.2-4.02-4.8-5.28-7.8 c-1.26-3-1.88-6.21-1.88-9.64c0-3.43,0.64-6.64,1.93-9.64c1.29-3,3.04-5.6,5.28-7.8c2.23-2.2,4.9-3.95,7.99-5.23 C1372.23,840.74,1375.58,840.1,1379.19,840.1z M1379.19,851.66c-1.78,0-3.44,0.32-5,0.96s-2.91,1.55-4.04,2.71 c-1.13,1.16-2.02,2.54-2.66,4.13c-0.64,1.59-0.96,3.34-0.96,5.23c0,1.9,0.31,3.64,0.92,5.23c0.61,1.59,1.47,2.97,2.57,4.13 c1.1,1.16,2.42,2.08,3.95,2.75c1.53,0.67,3.18,1.01,4.96,1.01c1.77,0,3.46-0.34,5.05-1.01c1.59-0.67,2.97-1.59,4.13-2.75 c1.16-1.16,2.08-2.54,2.75-4.13c0.67-1.59,1.01-3.33,1.01-5.23c0-1.9-0.32-3.64-0.96-5.23c-0.64-1.59-1.53-2.97-2.66-4.13 c-1.13-1.16-2.48-2.07-4.04-2.71C1382.64,851.98,1380.97,851.66,1379.19,851.66z"></path> <path class="st3" d="M1424.54,845.79c1.16-1.35,2.91-2.62,5.23-3.81c2.33-1.19,5.14-1.79,8.45-1.79c2.75,0,5.25,0.46,7.48,1.38 c2.23,0.92,4.15,2.2,5.74,3.86c1.59,1.65,2.81,3.66,3.67,6.01c0.86,2.36,1.29,4.94,1.29,7.76v28.92h-12.67v-26.71 c0-2.81-0.75-5.09-2.25-6.84c-1.5-1.74-3.63-2.62-6.38-2.62c-3.12,0-5.63,0.92-7.53,2.75c-1.9,1.84-2.85,4.41-2.85,7.71v25.7 h-12.76v-47.09h12.58V845.79z"></path> <g> <path class="st3" d="M696.01,841.01v11.38h-11.57v18.91c0,2.14,0.5,3.66,1.51,4.54c1.01,0.89,2.58,1.33,4.73,1.33h5.32v10.92 h-6.24c-6.3,0-10.89-1.36-13.77-4.09c-2.88-2.72-4.31-6.75-4.31-12.07V852.4h-6.79v-11.38h6.79V828.9h12.76v12.12H696.01z"></path> <g> <g> <g> <path class="st3" d="M547.3,884.62c-1.65,1.29-3.69,2.29-6.1,3.03c-2.42,0.73-4.97,1.1-7.67,1.1c-3.24,0-6.3-0.61-9.18-1.84 c-2.88-1.22-5.39-2.91-7.53-5.05c-2.14-2.14-3.86-4.67-5.14-7.57c-1.29-2.91-1.93-6.07-1.93-9.5c0-3.37,0.64-6.53,1.93-9.5 c1.29-2.97,3-5.54,5.14-7.71c2.14-2.17,4.65-3.89,7.53-5.14c2.88-1.25,5.94-1.88,9.18-1.88c2.69,0,5.25,0.38,7.67,1.15 c2.42,0.77,4.45,1.79,6.1,3.08v-19.55h12.76v62.88H547.3V884.62z M534.63,877.46c1.84,0,3.53-0.32,5.09-0.96 c1.56-0.64,2.92-1.54,4.09-2.71c1.16-1.16,2.07-2.51,2.71-4.04c0.64-1.53,0.96-3.18,0.96-4.96c0-1.71-0.34-3.35-1.01-4.91 c-0.67-1.56-1.59-2.91-2.75-4.04c-1.16-1.13-2.52-2.03-4.09-2.71c-1.56-0.67-3.23-1.01-5-1.01c-1.78,0-3.41,0.34-4.91,1.01 c-1.5,0.67-2.8,1.58-3.9,2.71c-1.1,1.13-1.97,2.48-2.62,4.04c-0.64,1.56-0.96,3.2-0.96,4.91c0,1.78,0.32,3.43,0.96,4.96 c0.64,1.53,1.51,2.88,2.62,4.04c1.1,1.16,2.4,2.07,3.9,2.71C531.22,877.14,532.85,877.46,534.63,877.46z"></path> <path class="st3" d="M567.49,888.11v-47.09h12.76v47.09H567.49z M580.21,831.58c0,3.51-2.85,6.36-6.36,6.36 s-6.36-2.85-6.36-6.36c0-3.51,2.85-6.36,6.36-6.36S580.21,828.07,580.21,831.58z"></path> </g> <path class="st3" d="M612.1,905.36c-5.32,0-9.84-0.96-13.54-2.89c-3.7-1.93-6.78-4.64-9.23-8.12l9.18-6.24 c1.41,1.96,3.23,3.53,5.46,4.73c2.23,1.19,4.88,1.79,7.94,1.79c3.98,0,7.1-0.83,9.36-2.48c2.26-1.65,3.4-4.16,3.4-7.53v-1.29 c-3.43,2.88-7.96,4.31-13.59,4.31c-3.12,0-6.1-0.6-8.95-1.79c-2.85-1.19-5.34-2.85-7.48-4.96c-2.14-2.11-3.84-4.6-5.09-7.48 c-1.26-2.88-1.88-6-1.88-9.36c0-3.3,0.63-6.41,1.88-9.32c1.25-2.91,2.95-5.43,5.09-7.57c2.14-2.14,4.64-3.82,7.48-5.05 c2.85-1.22,5.83-1.84,8.95-1.84c3.12,0,5.81,0.43,8.08,1.29c2.26,0.86,4.1,1.84,5.51,2.94v-3.49h12.67v42.5 c0,3.06-0.55,5.91-1.65,8.54c-1.1,2.63-2.72,4.94-4.87,6.93c-2.14,1.99-4.79,3.55-7.94,4.68 C619.74,904.8,616.14,905.36,612.1,905.36z M612.2,851.75c-1.65,0-3.21,0.32-4.68,0.96c-1.47,0.64-2.75,1.53-3.86,2.66 c-1.1,1.13-1.97,2.45-2.62,3.95c-0.64,1.5-0.96,3.11-0.96,4.82c0,1.78,0.32,3.41,0.96,4.91c0.64,1.5,1.51,2.8,2.62,3.9 c1.1,1.1,2.39,1.97,3.86,2.62c1.47,0.64,3.03,0.96,4.68,0.96c1.84,0,3.52-0.32,5.05-0.96c1.53-0.64,2.86-1.51,3.99-2.62 c1.13-1.1,2.02-2.4,2.66-3.9c0.64-1.5,0.96-3.14,0.96-4.91c0-1.71-0.32-3.32-0.96-4.82c-0.64-1.5-1.53-2.81-2.66-3.95 c-1.13-1.13-2.48-2.02-4.04-2.66C615.64,852.08,613.97,851.75,612.2,851.75z"></path> </g> <path class="st3" d="M644.69,888.11v-47.09h12.76v47.09H644.69z M657.41,831.58c0,3.51-2.85,6.36-6.36,6.36 c-3.51,0-6.36-2.85-6.36-6.36c0-3.51,2.85-6.36,6.36-6.36C654.56,825.23,657.41,828.07,657.41,831.58z"></path> </g> </g> <g> <g> <g> <g> <g> <g> <g> <g> <g> <g> <g> <path class="st3" d="M833.67,841.01v11.38H822.1v18.91c0,2.14,0.5,3.66,1.51,4.54c1.01,0.89,2.58,1.33,4.73,1.33h5.32 v10.92h-6.24c-6.3,0-10.89-1.36-13.77-4.09c-2.88-2.72-4.31-6.75-4.31-12.07V852.4h-6.79v-11.38h6.79V828.9h12.76 v12.12H833.67z"></path> <path class="st3" d="M841.1,888.11v-47.09h12.76v6.43c1.59-2.14,3.53-3.86,5.83-5.14c2.29-1.29,4.91-1.93,7.85-1.93 v12.85c-4.71,0-8.16,1.21-10.33,3.63c-2.17,2.42-3.26,5.68-3.26,9.78v21.48H841.1z"></path> </g> <path class="st3" d="M910.32,884.62c-1.65,1.29-3.69,2.29-6.1,3.03c-2.42,0.73-4.97,1.1-7.67,1.1 c-3.24,0-6.3-0.61-9.18-1.84c-2.88-1.22-5.39-2.91-7.53-5.05c-2.14-2.14-3.86-4.67-5.14-7.57 c-1.29-2.91-1.93-6.07-1.93-9.5c0-3.37,0.64-6.53,1.93-9.5c1.29-2.97,3-5.54,5.14-7.71c2.14-2.17,4.65-3.89,7.53-5.14 c2.88-1.25,5.94-1.88,9.18-1.88c2.69,0,5.25,0.38,7.67,1.15c2.42,0.77,4.45,1.79,6.1,3.08v-3.76h12.76v47.09h-12.76 V884.62z M897.65,852.12c-1.78,0-3.41,0.34-4.91,1.01c-1.5,0.67-2.8,1.58-3.9,2.71c-1.1,1.13-1.97,2.48-2.62,4.04 c-0.64,1.56-0.96,3.2-0.96,4.91c0,1.78,0.32,3.43,0.96,4.96c0.64,1.53,1.51,2.88,2.62,4.04c1.1,1.16,2.4,2.07,3.9,2.71 c1.5,0.64,3.14,0.96,4.91,0.96c1.84,0,3.53-0.32,5.09-0.96c1.56-0.64,2.92-1.54,4.09-2.71 c1.16-1.16,2.07-2.51,2.71-4.04c0.64-1.53,0.96-3.18,0.96-4.96c0-1.71-0.34-3.35-1.01-4.91 c-0.67-1.56-1.59-2.91-2.75-4.04c-1.16-1.13-2.52-2.03-4.09-2.71C901.09,852.46,899.42,852.12,897.65,852.12z"></path> </g> <path class="st3" d="M943.09,845.79c1.16-1.35,2.91-2.62,5.23-3.81c2.33-1.19,5.14-1.79,8.45-1.79 c2.75,0,5.25,0.46,7.48,1.38c2.23,0.92,4.15,2.2,5.74,3.86c1.59,1.65,2.81,3.66,3.67,6.01 c0.86,2.36,1.29,4.94,1.29,7.76v28.92h-12.67v-26.71c0-2.81-0.75-5.09-2.25-6.84c-1.5-1.74-3.63-2.62-6.38-2.62 c-3.12,0-5.63,0.92-7.53,2.75c-1.9,1.84-2.85,4.41-2.85,7.71v25.7h-12.76v-47.09h12.58V845.79z"></path> </g> <path class="st3" d="M995.32,873.33c0,0.73,0.14,1.47,0.41,2.2c0.28,0.73,0.75,1.41,1.42,2.02 c0.67,0.61,1.56,1.13,2.66,1.56c1.1,0.43,2.51,0.64,4.22,0.64c2.39,0,4.15-0.46,5.28-1.38c1.13-0.92,1.7-1.93,1.7-3.03 c0-0.73-0.22-1.36-0.64-1.88c-0.43-0.52-1.01-0.93-1.74-1.24c-0.73-0.31-1.61-0.57-2.62-0.78 c-1.01-0.21-2.1-0.41-3.26-0.6c-2.08-0.37-4.27-0.76-6.56-1.19c-2.29-0.43-4.41-1.15-6.33-2.16 c-1.93-1.01-3.52-2.43-4.77-4.27c-1.26-1.84-1.88-4.34-1.88-7.53c0-2.14,0.46-4.13,1.38-5.97 c0.92-1.84,2.22-3.44,3.9-4.82c1.68-1.38,3.72-2.46,6.1-3.26c2.39-0.79,5.08-1.19,8.08-1.19c6,0,10.77,1.41,14.32,4.22 c3.55,2.82,5.51,6.61,5.88,11.38h-12.76c-0.06-0.86-0.2-1.65-0.41-2.39c-0.22-0.73-0.6-1.36-1.15-1.88 c-0.55-0.52-1.29-0.93-2.2-1.24c-0.92-0.31-2.08-0.46-3.49-0.46c-1.84,0-3.41,0.32-4.73,0.96 c-1.32,0.64-1.97,1.7-1.97,3.17c0,0.86,0.28,1.58,0.83,2.16c0.55,0.58,1.32,1.06,2.29,1.42c0.98,0.37,2.11,0.67,3.4,0.92 c1.29,0.25,2.63,0.49,4.04,0.73c2.02,0.37,4.09,0.78,6.2,1.24c2.11,0.46,4.04,1.18,5.78,2.16 c1.74,0.98,3.17,2.28,4.27,3.9c1.1,1.62,1.65,3.75,1.65,6.38c0,2.82-0.55,5.22-1.65,7.21c-1.1,1.99-2.6,3.63-4.5,4.91 c-1.9,1.29-4.15,2.23-6.75,2.85c-2.6,0.61-5.37,0.92-8.31,0.92c-3.24,0-6.14-0.4-8.67-1.19c-2.54-0.79-4.71-1.9-6.52-3.3 c-1.81-1.41-3.21-3.06-4.22-4.96c-1.01-1.9-1.55-3.98-1.61-6.24H995.32z"></path> </g> <path class="st3" d="M1056.2,835.05c-2.08,0-3.64,0.43-4.68,1.29c-1.04,0.86-1.56,2.26-1.56,4.22v0.46h10.65v11.38h-10.65 v35.71h-12.76V852.4h-7.34v-11.38h7.34v-0.55c0-5.08,1.54-9,4.64-11.75c3.09-2.75,7.7-4.13,13.82-4.13h4.96v10.47H1056.2z "></path> </g> <path class="st3" d="M1090.5,840.1c3.61,0,6.96,0.64,10.05,1.93c3.09,1.29,5.77,3.03,8.03,5.23 c2.26,2.2,4.04,4.81,5.32,7.8c1.29,3,1.93,6.21,1.93,9.64c0,3.43-0.64,6.63-1.93,9.59c-1.29,2.97-3.06,5.55-5.32,7.76 c-2.27,2.2-4.94,3.95-8.03,5.23c-3.09,1.29-6.44,1.93-10.05,1.93c-3.61,0-6.96-0.63-10.05-1.88 c-3.09-1.25-5.77-2.98-8.03-5.19c-2.26-2.2-4.02-4.8-5.28-7.8c-1.26-3-1.88-6.21-1.88-9.64c0-3.43,0.64-6.64,1.93-9.64 c1.29-3,3.04-5.6,5.28-7.8c2.23-2.2,4.9-3.95,7.99-5.23C1083.53,840.74,1086.89,840.1,1090.5,840.1z M1090.5,851.66 c-1.78,0-3.44,0.32-5,0.96s-2.91,1.55-4.04,2.71c-1.13,1.16-2.02,2.54-2.66,4.13c-0.64,1.59-0.96,3.34-0.96,5.23 c0,1.9,0.31,3.64,0.92,5.23c0.61,1.59,1.47,2.97,2.57,4.13c1.1,1.16,2.42,2.08,3.95,2.75c1.53,0.67,3.18,1.01,4.96,1.01 c1.77,0,3.46-0.34,5.05-1.01c1.59-0.67,2.97-1.59,4.13-2.75c1.16-1.16,2.08-2.54,2.75-4.13c0.67-1.59,1.01-3.33,1.01-5.23 c0-1.9-0.32-3.64-0.96-5.23c-0.64-1.59-1.53-2.97-2.66-4.13c-1.13-1.16-2.48-2.07-4.04-2.71 C1093.94,851.98,1092.27,851.66,1090.5,851.66z"></path> </g> <path class="st3" d="M1123.27,888.11v-47.09h12.76v6.43c1.59-2.14,3.53-3.86,5.83-5.14c2.29-1.29,4.91-1.93,7.85-1.93v12.85 c-4.71,0-8.16,1.21-10.33,3.63c-2.17,2.42-3.26,5.68-3.26,9.78v21.48H1123.27z"></path> </g> <path class="st3" d="M1169.72,845.7c0.61-0.61,1.33-1.24,2.16-1.88s1.79-1.24,2.89-1.79c1.1-0.55,2.31-0.99,3.63-1.33 c1.31-0.34,2.77-0.5,4.36-0.5c2.69,0,5.19,0.5,7.48,1.51c2.3,1.01,4.3,2.65,6.01,4.91c1.84-1.96,4.01-3.52,6.52-4.68 c2.51-1.16,5.48-1.74,8.9-1.74c2.88,0,5.45,0.44,7.71,1.33c2.26,0.89,4.19,2.16,5.78,3.81c1.59,1.65,2.8,3.63,3.63,5.92 s1.24,4.85,1.24,7.67v29.19h-12.67v-27.08c0-2.75-0.69-4.96-2.07-6.61c-1.38-1.65-3.32-2.48-5.83-2.48 c-2.88,0-5.19,0.9-6.93,2.71c-1.74,1.81-2.62,4.3-2.62,7.48v25.98h-12.58v-27.08c0-2.75-0.69-4.96-2.07-6.61 c-1.38-1.65-3.32-2.48-5.83-2.48c-2.88,0-5.19,0.9-6.93,2.71c-1.74,1.81-2.62,4.3-2.62,7.48v25.98h-12.76v-47.09h12.58V845.7 z"></path> </g> <path class="st3" d="M1275.01,884.62c-1.65,1.29-3.69,2.29-6.1,3.03c-2.42,0.73-4.97,1.1-7.67,1.1c-3.24,0-6.3-0.61-9.18-1.84 c-2.88-1.22-5.39-2.91-7.53-5.05c-2.14-2.14-3.86-4.67-5.14-7.57c-1.29-2.91-1.93-6.07-1.93-9.5c0-3.37,0.64-6.53,1.93-9.5 c1.29-2.97,3-5.54,5.14-7.71c2.14-2.17,4.65-3.89,7.53-5.14c2.88-1.25,5.94-1.88,9.18-1.88c2.69,0,5.25,0.38,7.67,1.15 c2.42,0.77,4.45,1.79,6.1,3.08v-3.76h12.76v47.09h-12.76V884.62z M1262.34,852.12c-1.78,0-3.41,0.34-4.91,1.01 c-1.5,0.67-2.8,1.58-3.9,2.71c-1.1,1.13-1.97,2.48-2.62,4.04c-0.64,1.56-0.96,3.2-0.96,4.91c0,1.78,0.32,3.43,0.96,4.96 c0.64,1.53,1.51,2.88,2.62,4.04c1.1,1.16,2.4,2.07,3.9,2.71c1.5,0.64,3.14,0.96,4.91,0.96c1.84,0,3.53-0.32,5.09-0.96 c1.56-0.64,2.92-1.54,4.09-2.71c1.16-1.16,2.07-2.51,2.71-4.04c0.64-1.53,0.96-3.18,0.96-4.96c0-1.71-0.34-3.35-1.01-4.91 c-0.67-1.56-1.59-2.91-2.75-4.04c-1.16-1.13-2.52-2.03-4.08-2.71C1265.78,852.46,1264.11,852.12,1262.34,852.12z"></path> </g> <path class="st3" d="M1326.32,841.01v11.38h-11.57v18.91c0,2.14,0.5,3.66,1.51,4.54c1.01,0.89,2.58,1.33,4.73,1.33h5.32v10.92 h-6.24c-6.3,0-10.89-1.36-13.77-4.09c-2.88-2.72-4.31-6.75-4.31-12.07V852.4h-6.79v-11.38h6.79V828.9h12.76v12.12H1326.32z"></path> </g> <path class="st3" d="M1333.75,888.11v-47.09h12.76v47.09H1333.75z M1346.47,831.58c0,3.51-2.85,6.36-6.36,6.36 c-3.51,0-6.36-2.85-6.36-6.36c0-3.51,2.85-6.36,6.36-6.36C1343.62,825.23,1346.47,828.07,1346.47,831.58z"></path> </g> </g> </g> </g> </svg> 